<?xml version="1.0" encoding="UTF-8"?>
<svg version="1.1" xmlns="http://www.w3.org/2000/svg" width="480" height="480">
<path d="M0 0 C0.9238147 0.00182281 1.84762939 0.00364563 2.79943848 0.00552368 C16.51499188 0.05104843 29.8391809 0.54930012 43.3125 3.3125 C44.18036133 3.47878906 45.04822266 3.64507812 45.94238281 3.81640625 C107.69617637 15.78161921 163.26496781 51.68034579 198.90087891 103.62792969 C217.27519893 131.17499623 229.50311802 160.72791964 236.5625 193.0625 C236.71372314 193.74538086 236.86494629 194.42826172 237.02075195 195.13183594 C240.07875829 210.00227671 240.68715199 224.86760763 240.625 240 C240.62226578 241.38572205 240.62226578 241.38572205 240.61947632 242.79943848 C240.57395157 256.51499188 240.07569988 269.8391809 237.3125 283.3125 C237.14621094 284.18036133 236.97992188 285.04822266 236.80859375 285.94238281 C228.44516266 329.10697995 208.8549554 368.75947222 179.3125 401.3125 C178.79913086 401.88613281 178.28576172 402.45976562 177.75683594 403.05078125 C171.936648 409.55209335 166.03500412 415.73085881 159.3125 421.3125 C158.00539063 422.48619141 158.00539063 422.48619141 156.671875 423.68359375 C126.91840777 450.18738454 88.82208461 467.84043755 50.0625 476.125 C49.1537915 476.32005127 48.24508301 476.51510254 47.30883789 476.71606445 C31.8364864 479.81655246 16.37026149 480.69381176 0.625 480.625 C-0.24735291 480.62317719 -1.11970581 480.62135437 -2.01849365 480.61947632 C-15.76686048 480.57127775 -29.15969652 479.94499346 -42.6875 477.3125 C-43.5738916 477.14621094 -44.4602832 476.97992188 -45.37353516 476.80859375 C-108.36503842 464.68404848 -163.23793215 427.80638673 -199.57421875 375.1796875 C-219.10165417 346.18869106 -232.31948121 312.87527693 -237.6875 278.3125 C-237.86410156 277.18803467 -238.04070312 276.06356934 -238.22265625 274.9050293 C-239.8250906 263.59999807 -240.08674147 252.40708054 -240.0625 241 C-240.06195618 240.03405914 -240.06141235 239.06811829 -240.06085205 238.07290649 C-239.99872837 213.99948291 -236.65834367 191.39467963 -229.6875 168.3125 C-229.31117432 167.05977295 -229.31117432 167.05977295 -228.92724609 165.78173828 C-218.88246387 133.16687948 -200.89838189 103.22940416 -177.6875 78.3125 C-176.47411781 76.92105334 -175.26552197 75.52541361 -174.0625 74.125 C-168.36914526 67.6257366 -162.28883107 62.02480183 -155.54296875 56.6171875 C-153.75164427 55.17138525 -151.97979794 53.70073841 -150.23828125 52.1953125 C-121.4103228 27.48563383 -84.48619747 11.63498851 -47.5 4.0625 C-46.76579834 3.91135742 -46.03159668 3.76021484 -45.27514648 3.60449219 C-30.21286133 0.71561143 -15.30157522 -0.06284686 0 0 Z " fill="#FF004D" transform="translate(239.6875,-0.3125)"/>
<path d="M0 0 C1.66015625 1.37109375 1.66015625 1.37109375 3.97265625 3.62109375 C7.59679624 1.85002082 11.06980939 -0.13838722 14.55859375 -2.16015625 C23.21042079 -6.52806893 32.5994765 -6.79727447 41.78515625 -3.81640625 C49.87562448 -0.46699958 55.2576511 4.76242901 58.97265625 12.62109375 C60.53307828 16.71236783 61.21949317 20.07013363 61.19970703 24.44287109 C61.19955597 25.56358002 61.19940491 26.68428894 61.19924927 27.83895874 C61.1889267 29.03292267 61.17860413 30.2268866 61.16796875 31.45703125 C61.16513885 32.69152008 61.16230896 33.92600891 61.15939331 35.19790649 C61.14822147 39.13073524 61.12312189 43.06333412 61.09765625 46.99609375 C61.0864945 49.66666334 61.07849744 52.33723076 61.0703125 55.0078125 C61.04999578 61.54573218 61.01084018 68.08315642 60.97265625 74.62109375 C52.72265625 74.62109375 44.47265625 74.62109375 35.97265625 74.62109375 C35.946875 70.99753906 35.92109375 67.37398438 35.89453125 63.640625 C35.8561129 60.12907153 35.81095177 56.617665 35.76513672 53.10620117 C35.73692078 50.66681947 35.7157094 48.22734623 35.70166016 45.7878418 C35.68024015 42.27995927 35.6335919 38.77317804 35.58203125 35.265625 C35.58080261 34.17586868 35.57957397 33.08611237 35.57830811 31.96333313 C35.48401098 25.90609946 35.48401098 25.90609946 33.05957031 20.45581055 C29.29220465 17.14371965 26.31411835 17.34622839 21.453125 17.40234375 C18.23985576 17.68571868 16.3985349 18.49844993 13.97265625 20.62109375 C12.07777312 23.69751194 11.70814469 26.0788567 11.65380859 29.66503906 C11.6339389 30.66577454 11.61406921 31.66651001 11.59359741 32.6975708 C11.5820462 33.77061462 11.570495 34.84365845 11.55859375 35.94921875 C11.5392276 37.05336121 11.51986145 38.15750366 11.49990845 39.29510498 C11.44014733 42.82035608 11.39374061 46.3456399 11.34765625 49.87109375 C11.30947333 52.26173296 11.27042142 54.65235846 11.23046875 57.04296875 C11.13281369 62.90227226 11.05321602 68.76143038 10.97265625 74.62109375 C3.05265625 74.62109375 -4.86734375 74.62109375 -13.02734375 74.62109375 C-13.06472656 71.06972656 -13.10210937 67.51835937 -13.140625 63.859375 C-13.18684483 60.41733666 -13.23807697 56.97540686 -13.28979492 53.53344727 C-13.32303542 51.14256392 -13.35107004 48.75160227 -13.3737793 46.3605957 C-13.40734058 42.92234956 -13.45965899 39.48482046 -13.515625 36.046875 C-13.52201492 34.97899246 -13.52840485 33.91110992 -13.5349884 32.81086731 C-13.5941055 25.69881685 -13.5941055 25.69881685 -17.02734375 19.62109375 C-21.24522801 16.74208146 -26.11818703 16.84026725 -31.02734375 17.62109375 C-34.14911608 19.30397302 -36.4187141 21.40383445 -38.02734375 24.62109375 C-38.14574488 26.19316018 -38.20437408 27.76992644 -38.23266602 29.34619141 C-38.25261124 30.32705719 -38.27255646 31.30792297 -38.29310608 32.31851196 C-38.31817482 33.91075089 -38.31817482 33.91075089 -38.34375 35.53515625 C-38.3645311 36.61993256 -38.38531219 37.70470886 -38.40672302 38.82235718 C-38.47225009 42.29686996 -38.53111822 45.77145999 -38.58984375 49.24609375 C-38.63302596 51.59766433 -38.67664015 53.94922701 -38.72070312 56.30078125 C-38.82874975 62.07414064 -38.9278 67.84755636 -39.02734375 73.62109375 C-46.94734375 73.62109375 -54.86734375 73.62109375 -63.02734375 73.62109375 C-63.02734375 48.21109375 -63.02734375 22.80109375 -63.02734375 -3.37890625 C-55.10734375 -3.37890625 -47.18734375 -3.37890625 -39.02734375 -3.37890625 C-39.02734375 -1.72890625 -39.02734375 -0.07890625 -39.02734375 1.62109375 C-38.54265625 1.28335938 -38.05796875 0.945625 -37.55859375 0.59765625 C-25.97533415 -7.10966648 -11.90430571 -8.09676284 0 0 Z " fill="#FFFBFC" transform="translate(361.02734375,223.37890625)"/>
<path d="M0 0 C1.35963376 0.96393662 2.70236155 1.95409741 4 3 C4.33 1.35 4.66 -0.3 5 -2 C12.92 -2 20.84 -2 29 -2 C29 23.74 29 49.48 29 76 C21.08 76 13.16 76 5 76 C5 74.02 5 72.04 5 70 C4.12988281 70.50660156 4.12988281 70.50660156 3.2421875 71.0234375 C2.46101563 71.46945312 1.67984375 71.91546875 0.875 72.375 C0.10929687 72.81585938 -0.65640625 73.25671875 -1.4453125 73.7109375 C-9.71416784 77.8832957 -18.86678111 78.38786932 -27.8828125 76.34765625 C-39.66916458 72.04323613 -46.87030862 63.77380798 -52.12890625 52.6015625 C-55.63918977 42.1179355 -55.63305705 28.60972765 -51.2578125 18.390625 C-45.90058837 8.20857168 -37.98506343 0.98077979 -27.2109375 -3.1171875 C-17.72384959 -5.7255596 -8.73506827 -4.36024276 0 0 Z " fill="#FFFAFC" transform="translate(252,222)"/>
<path d="M0 0 C3.5864783 2.55154173 5.64344357 4.81104976 8.33984375 8.40625 C0.91484375 15.83125 0.91484375 15.83125 -6.66015625 23.40625 C-10.15498101 21.65883762 -13.30186567 19.7512188 -16.5625 17.625 C-22.82313485 13.98753618 -28.53877135 13.75185247 -35.66015625 14.40625 C-39.50930782 15.89250212 -39.50930782 15.89250212 -42.66015625 18.40625 C-42.9762397 20.36832724 -42.9762397 20.36832724 -43.03515625 22.65625 C-43.08414063 23.42453125 -43.133125 24.1928125 -43.18359375 24.984375 C-42.38961854 28.65799166 -40.53193929 30.05346389 -37.66015625 32.40625 C-34.30022067 34.10426037 -34.30022067 34.10426037 -30.59765625 35.40625 C-29.26149856 35.91478641 -27.92556381 36.42390897 -26.58984375 36.93359375 C-25.92823242 37.18093262 -25.26662109 37.42827148 -24.58496094 37.68310547 C-10.7946525 42.86409146 0.06134137 48.02500332 7.33984375 61.40625 C10.23873468 70.1029228 9.70057721 81.92211116 5.83984375 90.15625 C0.19271182 99.57251418 -7.3246326 104.07132103 -17.66015625 107.40625 C-33.25468663 110.8814768 -51.25386973 109.22248825 -65.0703125 101.16796875 C-69.28860228 98.29851371 -73.008733 94.95849879 -76.66015625 91.40625 C-75.33894797 88.47394807 -73.91377428 86.41960101 -71.62109375 84.171875 C-71.04101562 83.59824219 -70.4609375 83.02460938 -69.86328125 82.43359375 C-69.26 81.84707031 -68.65671875 81.26054687 -68.03515625 80.65625 C-67.42414063 80.05425781 -66.813125 79.45226562 -66.18359375 78.83203125 C-64.68027001 77.35219695 -63.17080769 75.87860324 -61.66015625 74.40625 C-58.49511594 75.8390723 -56.06944307 77.61970617 -53.41015625 79.84375 C-44.97082783 86.40919189 -37.37037262 87.56310264 -26.66015625 86.40625 C-23.4880296 85.40822492 -21.46343037 84.27509941 -18.66015625 82.40625 C-17.48380328 80.05354407 -17.52656266 78.585498 -17.53515625 75.96875 C-17.53257813 75.18628906 -17.53 74.40382813 -17.52734375 73.59765625 C-17.57633077 71.22729653 -17.57633077 71.22729653 -18.66015625 68.40625 C-21.97093977 66.34883452 -25.79131383 65.13600052 -29.41015625 63.71875 C-32.16290916 62.62139176 -34.91183982 61.51466609 -37.66015625 60.40625 C-38.35915039 60.12587891 -39.05814453 59.84550781 -39.77832031 59.55664062 C-52.07291487 54.57957919 -61.88653653 50.06181823 -67.66015625 37.40625 C-67.99015625 36.74625 -68.32015625 36.08625 -68.66015625 35.40625 C-69.73748206 25.28211484 -70.05458249 14.81535849 -63.66015625 6.40625 C-61.16015625 3.53125 -61.16015625 3.53125 -58.66015625 1.40625 C-57.45359375 0.354375 -57.45359375 0.354375 -56.22265625 -0.71875 C-40.12899631 -12.49459874 -16.31163573 -9.77260995 0 0 Z " fill="#FFFCFD" transform="translate(88.66015625,190.59375)"/>
<path d="M0 0 C8.25 0 16.5 0 25 0 C25.33 14.19 25.66 28.38 26 43 C28.97 41.35 31.94 39.7 35 38 C44.48418447 35.62895388 53.40465436 36.31162965 62 41 C62.72058594 41.38929688 63.44117188 41.77859375 64.18359375 42.1796875 C70.5006019 46.21588553 73.47614462 52.08667475 76 59 C76.73281397 63.65032928 76.70650604 68.16108348 76.5859375 72.859375 C76.57744781 74.12976624 76.56895813 75.40015747 76.56021118 76.70904541 C76.53255139 80.04398958 76.47891716 83.37633885 76.4119873 86.71057129 C76.34997689 90.12973937 76.32307268 93.54917853 76.29296875 96.96875 C76.2272 103.64662503 76.12383706 110.32295966 76 117 C68.08 117 60.16 117 52 117 C51.97421875 113.61621094 51.9484375 110.23242188 51.921875 106.74609375 C51.88342415 103.45621547 51.83827353 100.1664923 51.79248047 96.87670898 C51.76431589 94.59651132 51.743079 92.31621684 51.72900391 90.03588867 C51.70751252 86.75128782 51.66082828 83.46784545 51.609375 80.18359375 C51.60814636 79.16978134 51.60691772 78.15596893 51.60565186 77.11143494 C51.4779057 70.88909442 50.66466399 67.08320204 47 62 C42.8898727 58.99803579 37.87330197 59.48660514 33 60 C30.00882846 61.24632147 28.58387499 62.05205571 26.89492798 64.79412842 C25.85803007 67.3499359 25.72289066 69.28921651 25.68115234 72.04394531 C25.66128265 73.04468079 25.64141296 74.04541626 25.62094116 75.07647705 C25.60938995 76.14952087 25.59783875 77.2225647 25.5859375 78.328125 C25.56657135 79.43226746 25.5472052 80.53640991 25.5272522 81.67401123 C25.46749108 85.19926233 25.42108436 88.72454615 25.375 92.25 C25.33681708 94.64063921 25.29776517 97.03126471 25.2578125 99.421875 C25.16015744 105.28117851 25.08055977 111.14033663 25 117 C16.75 117 8.5 117 0 117 C0 78.39 0 39.78 0 0 Z " fill="#FFFAFB" transform="translate(111,181)"/>
<path d="M0 0 C8.91 0 17.82 0 27 0 C26.62902798 8.30237479 26.25570474 16.60463396 25.87835789 24.90672112 C25.70319109 28.76262082 25.52901394 32.61855969 25.35717773 36.47460938 C25.1909933 40.20298339 25.02210577 43.93122642 24.85142326 47.65939713 C24.78709594 49.07454297 24.72370682 50.48973182 24.66131783 51.90496445 C24.31982879 59.63653261 23.86008452 67.30792332 23 75 C16.73 75 10.46 75 4 75 C3.87882812 72.57011719 3.75765625 70.14023438 3.6328125 67.63671875 C3.46521377 64.32022621 3.29541295 61.00384907 3.125 57.6875 C3.05880463 56.39821594 3.05880463 56.39821594 2.99127197 55.08288574 C2.36044758 42.89150006 1.61905104 30.72040545 0.60986328 18.5534668 C0.48973877 17.06520386 0.48973877 17.06520386 0.3671875 15.546875 C0.29612793 14.70995117 0.22506836 13.87302734 0.15185547 13.01074219 C-0.06662647 8.67903912 0 4.33720945 0 0 Z " fill="#FFF9FA" transform="translate(438,181)"/>
<path d="M0 0 C4.16770856 2.39211675 7.14274408 4.83794088 8.8125 9.4375 C9.70478826 16.80745786 9.71408452 22.96252995 5.8125 29.4375 C2.34096972 33.33487133 -1.17265373 35.0408097 -6.265625 35.7109375 C-11.54607967 35.95786524 -15.12802007 35.13718223 -19.45703125 32.03515625 C-23.38657643 28.40720145 -24.89752772 24.73613445 -25.5625 19.46484375 C-25.75077556 14.71676947 -25.609832 11.33089462 -23.5625 7 C-16.85806377 -0.23373383 -9.73128881 -4.31273027 0 0 Z " fill="#FF034F" transform="translate(248.1875,241.5625)"/>
<path d="M0 0 C4.72403852 1.9512333 7.72471109 5.44942218 10 10 C10.57825746 14.73981526 10.47260429 18.11997823 8.1875 22.375 C3.01350016 28.5837998 3.01350016 28.5837998 -2.234375 29.30859375 C-7.03528684 29.55460321 -10.19063956 29.43361465 -14 26.3125 C-17.82790283 22.43956302 -19.06542866 19.06323448 -19.5625 13.6875 C-19.48605777 8.61683194 -17.13976174 6.07086402 -13.7265625 2.53125 C-9.72697962 -1.01589138 -5.09141797 -0.44238229 0 0 Z " fill="#FFFBFC" transform="translate(456,270)"/>
</svg>
